<svg width="1024" height="1024" viewBox="0 0 1024 1024" fill="none" xmlns="http://www.w3.org/2000/svg">
<path d="M0 0H1024V1024H0V0Z" fill="url(#paint0_linear_36_2)"/>
<path d="M355.63 799.704V794.264H349.998V774.616H355.63V769.112H375.086V774.616H380.782V783.256H372.59V777.816H358.126V791H372.59V785.496H380.782V794.264H375.086V799.704H355.63ZM388.56 799.704V774.616H394.192V769.112H413.648V774.616H419.344V783.256H411.152V777.816H396.688V799.704H388.56ZM430.817 799.704V794.264H425.185V774.616H430.817V769.112H450.273V774.616H455.969V791H461.665V799.704H453.473V794.264H450.273V799.704H430.817ZM433.313 791H447.777V777.816H433.313V791ZM466.31 799.704V763.672H471.942V758.168H491.398V763.672H497.094V772.376H488.902V766.936H474.438V774.616H485.766V783.256H474.438V799.704H466.31ZM510.387 799.704V794.264H504.755V777.816H499.123V769.112H504.755V758.168H512.883V769.112H529.907V777.816H512.883V791H527.411V785.496H535.603V794.264H529.907V799.704H510.387ZM543.435 799.704V769.112H551.563V799.704H543.435ZM543.435 766.936V758.168H551.563V766.936H543.435ZM558.123 799.704V769.112H583.211V774.616H588.907V799.704H580.715V777.816H566.251V799.704H558.123ZM601.067 810.648V805.208H595.435V796.504H603.563V801.944H618.091V794.264H601.067V788.76H595.435V774.616H601.067V769.112H620.587V774.616H626.219V805.208H620.587V810.648H601.067ZM603.563 785.496H618.091V777.816H603.563V785.496ZM633.998 799V790.232H642.126V799H633.998ZM649.935 799V790.232H658.063V799H649.935ZM665.873 799V790.232H674.001V799H665.873Z" fill="white"/>
<path d="M206.242 219.056V210.896H197.794V165.008H206.242V156.752H235.426V165.008H243.97V178.064H231.682V169.904H209.986V181.424H226.978V194.384H209.986V206H231.682V197.744H243.97V210.896H235.426V219.056H206.242Z" fill="white"/>
<path d="M264.086 219.056V210.896H255.638V181.424H264.086V173.168H293.27V181.424H301.814V206H310.358V219.056H298.07V210.896H293.27V219.056H264.086ZM267.83 206H289.526V186.224H267.83V206Z" fill="white"/>
<path d="M319.2 219.056V206H353.088V202.64H327.648V194.384H319.2V181.424H327.648V173.168H365.376V186.224H331.392V189.488H356.832V197.744H365.376V210.896H356.832V219.056H319.2Z" fill="white"/>
<path d="M383.617 235.472V227.312H375.169V214.256H387.361V222.416H409.153V210.896H383.617V202.64H375.169V173.168H387.361V197.744H409.153V173.168H421.345V227.312H412.897V235.472H383.617Z" fill="white"/>
<path d="M433.013 219.056V173.168H470.645V181.424H479.189V219.056H466.901V186.224H445.205V219.056H433.013Z" fill="white"/>
<path d="M503.909 219.056V210.896H495.461V186.224H487.013V173.168H495.461V156.752H507.653V173.168H533.189V186.224H507.653V206H529.445V197.744H541.733V210.896H533.189V219.056H503.909Z" fill="white"/>
<path d="M553.481 219.056V181.424H561.929V173.168H591.113V181.424H599.657V194.384H587.369V186.224H565.673V219.056H553.481Z" fill="white"/>
<path d="M616.867 219.056V210.896H608.419V181.424H616.867V173.168H646.051V181.424H654.595V210.896H646.051V219.056H616.867ZM620.611 206H642.307V186.224H620.611V206Z" fill="white"/>
<path d="M666.263 234.992V181.424H674.711V173.168H703.895V181.424H712.439V210.896H703.895V219.056H678.455V234.992H666.263ZM678.455 206H700.151V186.224H678.455V206Z" fill="white"/>
<path d="M724.106 219.056V156.752H736.298V181.424H741.002V173.168H761.738V181.424H770.282V219.056H757.994V186.224H744.746V194.384H736.298V219.056H724.106Z" fill="white"/>
<path d="M788.523 235.472V227.312H780.075V214.256H792.267V222.416H814.059V210.896H788.523V202.64H780.075V173.168H792.267V197.744H814.059V173.168H826.251V227.312H817.803V235.472H788.523Z" fill="white"/>
<path d="M81.5 85H125.5V42H897V85H941M81.5 85H37.5V54.5M81.5 85V42H48.5M81.5 85V128.5H37.5V895H81.5V938.5M941 85H985V54.5M941 85V42H974M941 85V128.5H985V895H941V938.5M81.5 938.5H125.5V981.5H897V938.5H941M81.5 938.5H37.5V969M81.5 938.5V981.5H48.5M941 938.5H985V969M941 938.5V981.5H974M81.5 160.5V862M156 938.5H867M941 160.5V862M156 85H867" stroke="white" stroke-width="22"/>
<defs>
<linearGradient id="paint0_linear_36_2" x1="1024" y1="0" x2="0" y2="1024" gradientUnits="userSpaceOnUse">
<stop stop-color="#685545"/>
<stop offset="0.0001" stop-color="#675344"/>
<stop offset="0.0002" stop-color="#2E231A"/>
</linearGradient>
</defs>
</svg>
