<svg width="1024" height="1024" viewBox="0 0 1024 1024" fill="none" xmlns="http://www.w3.org/2000/svg"><path d="M0 0H1024V1024H0V0Z" fill="url(#gr)"/>
<g class="pa sf "><text x="155" y="122">0xaaaf88aa5356c8667fb29f924e28519c81b28428da6604e703bffee7c80be26b</text><text x="240" y="912">0xf39fd6e51aad88f6f4ce6ab8827279cfffb92266</text><text x="525" y="735" id="pp">691</text><text x="525" y="799" id="sp">255</text><style>text{font-family: monospace;font-size: 16px}#pp,#sp{text-anchor: middle}#pp{font-size:
  100px}#sp{font-size: 50px;stroke-width: 0}#pe,#pf,#pa,#pw,#se,#sf,#sa,#sw,#v{display: none}.pe
  #pe,.pf #pf,.pa #pa,.pw #pw,.se #se,.sf #sf,.sa #sa,.sw #sw,.v #v{display: block}.pe #c path,.pe
  text{fill: #b99461}.pf #c path,.pf text{fill: #E57835}.pw #c path,.pw text{fill: #4bb6c1}.pa #c
  path,.pa text{fill: #bcdcc7}#o{fill: none !important}.pe #o{stroke: #b99461}.pf #o{stroke:
  #E57835}.pw #o{stroke: #4bb6c1}.pa #o{stroke: #bcdcc7}.se #sp{fill: #b99461}.sf #sp{fill:
  #E57835}.sw #sp{fill: #4bb6c1}.sa #sp{fill: #bcdcc7}</style>
<defs>
<g id="e">
  <path d="M73.3125 146.625H97.75V171.062H73.3125V146.625Z" fill="#45552B"/>
  <path d="M73.3125 171.062H97.75V195.5H73.3125V171.062Z" fill="#45552B"/>
  <path d="M73.3125 195.5H97.75V219.938H73.3125V195.5Z" fill="#364422"/>
  <path d="M73.3125 219.938H97.75V244.375H73.3125V219.938Z" fill="#3A2717"/>
  <path d="M73.3125 244.375H97.75V268.812H73.3125V244.375Z" fill="#49341E"/>
  <path d="M73.3125 268.812H97.75V293.25H73.3125V268.812Z" fill="#5E3D20"/>
  <path d="M73.3125 293.25H97.75V317.688H73.3125V293.25Z" fill="#583720"/>
  <path d="M73.3125 317.688H97.75V342.125H73.3125V317.688Z" fill="#3B2F1F"/>
  <path d="M0 268.812H24.4375V293.25H0V268.812Z" fill="#49341E"/>
  <path d="M0 293.25H24.4375V317.688H0V293.25Z" fill="#49341E"/>
  <path d="M0 317.688H24.4375V342.125H0V317.688Z" fill="#3A2717"/>
  <path d="M97.75 122.188H122.188V146.625H97.75V122.188Z" fill="#45552B"/>
  <path d="M97.75 146.625H122.188V171.062H97.75V146.625Z" fill="#384623"/>
  <path d="M97.75 171.062H122.188V195.5H97.75V171.062Z" fill="#724C28"/>
  <path d="M97.75 195.5H122.188V219.938H97.75V195.5Z" fill="#3A2717"/>
  <path d="M97.75 219.938H122.188V244.375H97.75V219.938Z" fill="#583720"/>
  <path d="M97.75 244.375H122.188V268.812H97.75V244.375Z" fill="#5E3D20"/>
  <path d="M97.75 268.812H122.188V293.25H97.75V268.812Z" fill="#49341E"/>
  <path d="M97.75 293.25H122.188V317.688H97.75V293.25Z" fill="#49341E"/>
  <path d="M97.75 317.688H122.188V342.125H97.75V317.688Z" fill="#3B2F1F"/>
  <path d="M24.4375 244.375H48.875V268.812H24.4375V244.375Z" fill="#433021"/>
  <path d="M24.4375 268.812H48.875V293.25H24.4375V268.812Z" fill="#49341E"/>
  <path d="M24.4375 293.25H48.875V317.688H24.4375V293.25Z" fill="#583720"/>
  <path d="M24.4375 317.688H48.875V342.125H24.4375V317.688Z" fill="#3A2717"/>
  <path d="M122.188 73.3125H146.625V97.75H122.188V73.3125Z" fill="#778533"/>
  <path d="M122.188 97.75H146.625V122.188H122.188V97.75Z" fill="#45552B"/>
  <path d="M122.188 122.188H146.625V146.625H122.188V122.188Z" fill="#45552B"/>
  <path d="M122.188 146.625H146.625V171.062H122.188V146.625Z" fill="#45552B"/>
  <path d="M122.188 171.062H146.625V195.5H122.188V171.062Z" fill="#45552B"/>
  <path d="M122.188 195.5H146.625V219.938H122.188V195.5Z" fill="#384623"/>
  <path d="M122.188 219.938H146.625V244.375H122.188V219.938Z" fill="#5E3D20"/>
  <path d="M122.188 244.375H146.625V268.812H122.188V244.375Z" fill="#5E3D20"/>
  <path d="M122.188 268.812H146.625V293.25H122.188V268.812Z" fill="#82562D"/>
  <path d="M122.188 293.25H146.625V317.688H122.188V293.25Z" fill="#724C28"/>
  <path d="M122.188 317.688H146.625V342.125H122.188V317.688Z" fill="#3B2F1F"/>
  <path d="M48.875 195.5H73.3125V219.938H48.875V195.5Z" fill="#384623"/>
  <path d="M48.875 219.938H73.3125V244.375H48.875V219.938Z" fill="#384623"/>
  <path d="M48.875 244.375H73.3125V268.812H48.875V244.375Z" fill="#3F3321"/>
  <path d="M48.875 268.812H73.3125V293.25H48.875V268.812Z" fill="#5E3D20"/>
  <path d="M48.875 293.25H73.3125V317.688H48.875V293.25Z" fill="#5E3D20"/>
  <path d="M48.875 317.688H73.3125V342.125H48.875V317.688Z" fill="#3B2F1F"/>
  <path d="M146.625 24.4375H171.062V48.875H146.625V24.4375Z" fill="#687130"/>
  <path d="M146.625 48.875H171.062V73.3125H146.625V48.875Z" fill="#778533"/>
  <path d="M146.625 73.3125H171.062V97.75H146.625V73.3125Z" fill="#687130"/>
  <path d="M146.625 97.75H171.062V122.188H146.625V97.75Z" fill="#45552B"/>
  <path d="M146.625 122.188H171.062V146.625H146.625V122.188Z" fill="#43542B"/>
  <path d="M146.625 146.625H171.062V171.062H146.625V146.625Z" fill="#878235"/>
  <path d="M146.625 171.062H171.062V195.5H146.625V171.062Z" fill="#8C5C2E"/>
  <path d="M146.625 195.5H171.062V219.938H146.625V195.5Z" fill="#45552B"/>
  <path d="M146.625 219.938H171.062V244.375H146.625V219.938Z" fill="#45552B"/>
  <path d="M146.625 244.375H171.062V268.812H146.625V244.375Z" fill="#8C5C2E"/>
  <path d="M146.625 268.812H171.062V293.25H146.625V268.812Z" fill="#7F552C"/>
  <path d="M146.625 293.25H171.062V317.688H146.625V293.25Z" fill="#724C28"/>
  <path d="M146.625 317.688H171.062V342.125H146.625V317.688Z" fill="#3B2F1F"/>
  <path d="M171.062 0H195.5V24.4375H171.062V0Z" fill="#939836"/>
  <path d="M171.062 24.4375H195.5V48.875H171.062V24.4375Z" fill="#939836"/>
  <path d="M171.062 48.875H195.5V73.3125H171.062V48.875Z" fill="#939836"/>
  <path d="M171.062 73.3125H195.5V97.75H171.062V73.3125Z" fill="#778533"/>
  <path d="M171.062 97.75H195.5V122.188H171.062V97.75Z" fill="#9D9D4F"/>
  <path d="M171.062 122.188H195.5V146.625H171.062V122.188Z" fill="#9D9D4F"/>
  <path d="M171.062 146.625H195.5V171.062H171.062V146.625Z" fill="#9D9D4F"/>
  <path d="M171.062 171.062H195.5V195.5H171.062V171.062Z" fill="#8C5C2E"/>
  <path d="M171.062 195.5H195.5V219.938H171.062V195.5Z" fill="#8C5C2E"/>
  <path d="M171.062 219.938H195.5V244.375H171.062V219.938Z" fill="#8C5C2E"/>
  <path d="M171.062 244.375H195.5V268.812H171.062V244.375Z" fill="#AD753B"/>
  <path d="M171.062 268.812H195.5V293.25H171.062V268.812Z" fill="#724C28"/>
  <path d="M171.062 293.25H195.5V317.688H171.062V293.25Z" fill="#583720"/>
  <path d="M171.062 317.688H195.5V342.125H171.062V317.688Z" fill="#3A2717"/>
  <path d="M195.5 24.4375H219.938V48.875H195.5V24.4375Z" fill="#878235"/>
  <path d="M195.5 48.875H219.938V73.3125H195.5V48.875Z" fill="#939836"/>
  <path d="M195.5 73.3125H219.938V97.75H195.5V73.3125Z" fill="#9D9D4F"/>
  <path d="M195.5 97.75H219.938V122.188H195.5V97.75Z" fill="#778533"/>
  <path d="M195.5 122.188H219.938V146.625H195.5V122.188Z" fill="#939836"/>
  <path d="M195.5 146.625H219.938V171.062H195.5V146.625Z" fill="#9B9D4F"/>
  <path d="M195.5 171.062H219.938V195.5H195.5V171.062Z" fill="#BB8B4F"/>
  <path d="M195.5 195.5H219.938V219.938H195.5V195.5Z" fill="#AD753B"/>
  <path d="M195.5 219.938H219.938V244.375H195.5V219.938Z" fill="#AD753B"/>
  <path d="M195.5 244.375H219.938V268.812H195.5V244.375Z" fill="#A56F38"/>
  <path d="M195.5 268.812H219.938V293.25H195.5V268.812Z" fill="#583720"/>
  <path d="M195.5 293.25H219.938V317.688H195.5V293.25Z" fill="#603C22"/>
  <path d="M195.5 317.688H219.938V342.125H195.5V317.688Z" fill="#583720"/>
  <path d="M219.938 48.875H244.375V73.3125H219.938V48.875Z" fill="#687130"/>
  <path d="M219.938 73.3125H244.375V97.75H219.938V73.3125Z" fill="#9D9D4F"/>
  <path d="M219.938 97.75H244.375V122.188H219.938V97.75Z" fill="#9D9D4F"/>
  <path d="M219.938 122.188H244.375V146.625H219.938V122.188Z" fill="#919837"/>
  <path d="M219.938 146.625H244.375V171.062H219.938V146.625Z" fill="#778533"/>
  <path d="M219.938 171.062H244.375V195.5H219.938V171.062Z" fill="#BB8B4F"/>
  <path d="M219.938 195.5H244.375V219.938H219.938V195.5Z" fill="#B17C43"/>
  <path d="M219.938 219.938H244.375V244.375H219.938V219.938Z" fill="#AD753C"/>
  <path d="M219.938 244.375H244.375V268.812H219.938V244.375Z" fill="#A9723A"/>
  <path d="M219.938 268.812H244.375V293.25H219.938V268.812Z" fill="#8C5C2E"/>
  <path d="M219.938 293.25H244.375V317.688H219.938V293.25Z" fill="#8C5C2E"/>
  <path d="M219.938 317.688H244.375V342.125H219.938V317.688Z" fill="#4F3521"/>
  <path d="M244.375 97.75H268.812V122.188H244.375V97.75Z" fill="#778533"/>
  <path d="M244.375 122.188H268.812V146.625H244.375V122.188Z" fill="#788532"/>
  <path d="M244.375 146.625H268.812V171.062H244.375V146.625Z" fill="#788633"/>
  <path d="M244.375 171.062H268.812V195.5H244.375V171.062Z" fill="#778533"/>
  <path d="M244.375 195.5H268.812V219.938H244.375V195.5Z" fill="#B48249"/>
  <path d="M244.375 219.938H268.812V244.375H244.375V219.938Z" fill="#AC743B"/>
  <path d="M244.375 244.375H268.812V268.812H244.375V244.375Z" fill="#AB743B"/>
  <path d="M244.375 268.812H268.812V293.25H244.375V268.812Z" fill="#BB8B4F"/>
  <path d="M244.375 293.25H268.812V317.688H244.375V293.25Z" fill="#AD753B"/>
  <path d="M244.375 317.688H268.812V342.125H244.375V317.688Z" fill="#49341E"/>
  <path d="M268.812 146.625H293.25V171.062H268.812V146.625Z" fill="#798632"/>
  <path d="M268.812 171.062H293.25V195.5H268.812V171.062Z" fill="#939836"/>
  <path d="M268.812 195.5H293.25V219.938H268.812V195.5Z" fill="#778533"/>
  <path d="M268.812 219.938H293.25V244.375H268.812V219.938Z" fill="#AD763D"/>
  <path d="M268.812 244.375H293.25V268.812H268.812V244.375Z" fill="#A87139"/>
  <path d="M268.812 268.812H293.25V293.25H268.812V268.812Z" fill="#AD753B"/>
  <path d="M268.812 293.25H293.25V317.688H268.812V293.25Z" fill="#AD753B"/>
  <path d="M268.812 317.688H293.25V342.125H268.812V317.688Z" fill="#4B341E"/>
  <path d="M293.25 171.062H317.688V195.5H293.25V171.062Z" fill="#778533"/>
  <path d="M293.25 195.5H317.688V219.938H293.25V195.5Z" fill="#7C8B36"/>
  <path d="M293.25 219.938H317.688V244.375H293.25V219.938Z" fill="#8C5C2E"/>
  <path d="M293.25 244.375H317.688V268.812H293.25V244.375Z" fill="#A66F38"/>
  <path d="M293.25 268.812H317.688V293.25H293.25V268.812Z" fill="#7B5129"/>
  <path d="M293.25 293.25H317.688V317.688H293.25V293.25Z" fill="#AD753B"/>
  <path d="M293.25 317.688H317.688V342.125H293.25V317.688Z" fill="#583720"/>
  <path d="M317.688 244.375H342.125V268.812H317.688V244.375Z" fill="#8C5C2E"/>
  <path d="M317.688 268.812H342.125V293.25H317.688V268.812Z" fill="#79502A"/>
  <path d="M317.688 293.25H342.125V317.688H317.688V293.25Z" fill="#724C28"/>
  <path d="M317.688 317.688H342.125V342.125H317.688V317.688Z" fill="#49341E"/>
  <path d="M342.125 268.812H366.562V293.25H342.125V268.812Z" fill="#8C5C2E"/>
  <path d="M342.125 293.25H366.562V317.688H342.125V293.25Z" fill="#8C5C2E"/>
  <path d="M342.125 317.688H366.562V342.125H342.125V317.688Z" fill="#724C28"/>
</g>
<g id="f">
  <path d="M0 171.062H24.4375V195.5H0V171.062Z" fill="#B4381B"/>
  <path d="M0 195.5H24.4375V219.938H0V195.5Z" fill="#D1441E"/>
  <path d="M0 219.938H24.4375V244.375H0V219.938Z" fill="#B4381B"/>
  <path d="M0 244.375H24.4375V268.812H0V244.375Z" fill="#B4381B"/>
  <path d="M0 268.812H24.4375V293.25H0V268.812Z" fill="#B7381A"/>
  <path d="M24.4375 195.5H48.875V219.938H24.4375V195.5Z" fill="#C23A17"/>
  <path d="M24.4375 219.938H48.875V244.375H24.4375V219.938Z" fill="#DF4C1C"/>
  <path d="M24.4375 244.375H48.875V268.812H24.4375V244.375Z" fill="#EE6223"/>
  <path d="M24.4375 268.812H48.875V293.25H24.4375V268.812Z" fill="#D1441E"/>
  <path d="M24.4375 293.25H48.875V317.688H24.4375V293.25Z" fill="#C23A17"/>
  <path d="M48.875 122.188H73.3125V146.625H48.875V122.188Z" fill="#B4381B"/>
  <path d="M48.875 146.625H73.3125V171.062H48.875V146.625Z" fill="#B4381B"/>
  <path d="M48.875 171.062H73.3125V195.5H48.875V171.062Z" fill="#B4381B"/>
  <path d="M48.875 195.5H73.3125V219.938H48.875V195.5Z" fill="#DF4C1C"/>
  <path d="M48.875 219.938H73.3125V244.375H48.875V219.938Z" fill="#DF4C1C"/>
  <path d="M48.875 244.375H73.3125V268.812H48.875V244.375Z" fill="#EB7626"/>
  <path d="M48.875 268.812H73.3125V293.25H48.875V268.812Z" fill="#EB7626"/>
  <path d="M48.875 293.25H73.3125V317.688H48.875V293.25Z" fill="#DF4C1C"/>
  <path d="M48.875 317.688H73.3125V342.125H48.875V317.688Z" fill="#C23A17"/>
  <path d="M146.625 48.875H171.062V73.3125H146.625V48.875Z" fill="#DC4B1D"/>
  <path d="M146.625 73.3125H171.062V97.75H146.625V73.3125Z" fill="#EE6223"/>
  <path d="M146.625 97.75H171.062V122.188H146.625V97.75Z" fill="#EE6223"/>
  <path d="M146.625 122.188H171.062V146.625H146.625V122.188Z" fill="#EE6223"/>
  <path d="M146.625 146.625H171.062V171.062H146.625V146.625Z" fill="#EE6223"/>
  <path d="M146.625 171.062H171.062V195.5H146.625V171.062Z" fill="#EE6223"/>
  <path d="M146.625 195.5H171.062V219.938H146.625V195.5Z" fill="#EE6223"/>
  <path d="M146.625 219.938H171.062V244.375H146.625V219.938Z" fill="#F99C2C"/>
  <path d="M146.625 244.375H171.062V268.812H146.625V244.375Z" fill="#F99C2C"/>
  <path d="M146.625 268.812H171.062V293.25H146.625V268.812Z" fill="#FDBD44"/>
  <path d="M146.625 293.25H171.062V317.688H146.625V293.25Z" fill="#FDBD44"/>
  <path d="M146.625 317.688H171.062V342.125H146.625V317.688Z" fill="#F99C2C"/>
  <path d="M146.625 342.125H171.062V366.562H146.625V342.125Z" fill="#C23A17"/>
  <path d="M73.3125 97.75H97.75V122.188H73.3125V97.75Z" fill="#B4381B"/>
  <path d="M73.3125 122.188H97.75V146.625H73.3125V122.188Z" fill="#DF4C1C"/>
  <path d="M73.3125 146.625H97.75V171.062H73.3125V146.625Z" fill="#DF4C1C"/>
  <path d="M73.3125 171.062H97.75V195.5H73.3125V171.062Z" fill="#EE6223"/>
  <path d="M73.3125 195.5H97.75V219.938H73.3125V195.5Z" fill="#EE6223"/>
  <path d="M73.3125 219.938H97.75V244.375H73.3125V219.938Z" fill="#EB7626"/>
  <path d="M73.3125 244.375H97.75V268.812H73.3125V244.375Z" fill="#F99C2C"/>
  <path d="M73.3125 268.812H97.75V293.25H73.3125V268.812Z" fill="#F99C2C"/>
  <path d="M73.3125 293.25H97.75V317.688H73.3125V293.25Z" fill="#F99C2C"/>
  <path d="M73.3125 317.688H97.75V342.125H73.3125V317.688Z" fill="#DF4C1C"/>
  <path d="M73.3125 342.125H97.75V366.562H73.3125V342.125Z" fill="#B4381B"/>
  <path d="M171.062 73.3125H195.5V97.75H171.062V73.3125Z" fill="#D1441E"/>
  <path d="M171.062 97.75H195.5V122.188H171.062V97.75Z" fill="#DF4C1C"/>
  <path d="M171.062 122.188H195.5V146.625H171.062V122.188Z" fill="#D1441E"/>
  <path d="M171.062 146.625H195.5V171.062H171.062V146.625Z" fill="#D1441E"/>
  <path d="M171.062 171.062H195.5V195.5H171.062V171.062Z" fill="#D1441E"/>
  <path d="M171.062 195.5H195.5V219.938H171.062V195.5Z" fill="#DF4C1C"/>
  <path d="M171.062 219.938H195.5V244.375H171.062V219.938Z" fill="#EE6223"/>
  <path d="M171.062 244.375H195.5V268.812H171.062V244.375Z" fill="#F99C2C"/>
  <path d="M171.062 268.812H195.5V293.25H171.062V268.812Z" fill="#F99C2C"/>
  <path d="M171.062 293.25H195.5V317.688H171.062V293.25Z" fill="#EB7626"/>
  <path d="M171.062 317.688H195.5V342.125H171.062V317.688Z" fill="#D1441E"/>
  <path d="M171.062 342.125H195.5V366.562H171.062V342.125Z" fill="#C23A17"/>
  <path d="M97.75 0H122.188V24.4375H97.75V0Z" fill="#DF4C1C"/>
  <path d="M97.75 73.3125H122.188V97.75H97.75V73.3125Z" fill="#DE4B1C"/>
  <path d="M97.75 97.75H122.188V122.188H97.75V97.75Z" fill="#DF4C1C"/>
  <path d="M97.75 122.188H122.188V146.625H97.75V122.188Z" fill="#DF4C1C"/>
  <path d="M97.75 146.625H122.188V171.062H97.75V146.625Z" fill="#EE6223"/>
  <path d="M97.75 171.062H122.188V195.5H97.75V171.062Z" fill="#F99C2C"/>
  <path d="M97.75 195.5H122.188V219.938H97.75V195.5Z" fill="#F99C2C"/>
  <path d="M97.75 219.938H122.188V244.375H97.75V219.938Z" fill="#F99C2C"/>
  <path d="M97.75 244.375H122.188V268.812H97.75V244.375Z" fill="#FDBD44"/>
  <path d="M97.75 268.812H122.188V293.25H97.75V268.812Z" fill="#FDBD44"/>
  <path d="M97.75 293.25H122.188V317.688H97.75V293.25Z" fill="#FDBD44"/>
  <path d="M97.75 317.688H122.188V342.125H97.75V317.688Z" fill="#F99C2C"/>
  <path d="M97.75 342.125H122.188V366.562H97.75V342.125Z" fill="#C23A17"/>
  <path d="M195.5 195.5H219.938V219.938H195.5V195.5Z" fill="#D1441E"/>
  <path d="M195.5 219.938H219.938V244.375H195.5V219.938Z" fill="#EB7626"/>
  <path d="M195.5 244.375H219.938V268.812H195.5V244.375Z" fill="#EB7626"/>
  <path d="M195.5 268.812H219.938V293.25H195.5V268.812Z" fill="#EB7626"/>
  <path d="M195.5 293.25H219.938V317.688H195.5V293.25Z" fill="#D1441E"/>
  <path d="M195.5 317.688H219.938V342.125H195.5V317.688Z" fill="#C23A17"/>
  <path d="M122.188 24.4375H146.625V48.875H122.188V24.4375Z" fill="#DF4C1C"/>
  <path d="M122.188 48.875H146.625V73.3125H122.188V48.875Z" fill="#DF4C1C"/>
  <path d="M122.188 73.3125H146.625V97.75H122.188V73.3125Z" fill="#DE4C1D"/>
  <path d="M122.188 97.75H146.625V122.188H122.188V97.75Z" fill="#DF4B1C"/>
  <path d="M122.188 122.188H146.625V146.625H122.188V122.188Z" fill="#F99C2C"/>
  <path d="M122.188 146.625H146.625V171.062H122.188V146.625Z" fill="#F99C2C"/>
  <path d="M122.188 171.062H146.625V195.5H122.188V171.062Z" fill="#F99C2C"/>
  <path d="M122.188 195.5H146.625V219.938H122.188V195.5Z" fill="#FDBD44"/>
  <path d="M122.188 219.938H146.625V244.375H122.188V219.938Z" fill="#FDBD44"/>
  <path d="M122.188 244.375H146.625V268.812H122.188V244.375Z" fill="#FDBD44"/>
  <path d="M122.188 268.812H146.625V293.25H122.188V268.812Z" fill="#FDBC43"/>
  <path d="M122.188 293.25H146.625V317.688H122.188V293.25Z" fill="#FDBD44"/>
  <path d="M122.188 317.688H146.625V342.125H122.188V317.688Z" fill="#F99C2C"/>
  <path d="M122.188 342.125H146.625V366.562H122.188V342.125Z" fill="#D1441E"/>
  <path d="M219.938 122.188H244.375V146.625H219.938V122.188Z" fill="#EB7626"/>
  <path d="M219.938 171.062H244.375V195.5H219.938V171.062Z" fill="#B4381B"/>
  <path d="M219.938 195.5H244.375V219.938H219.938V195.5Z" fill="#C23A17"/>
  <path d="M219.938 219.938H244.375V244.375H219.938V219.938Z" fill="#B4381B"/>
  <path d="M219.938 244.375H244.375V268.812H219.938V244.375Z" fill="#B4381B"/>
  <path d="M219.938 268.812H244.375V293.25H219.938V268.812Z" fill="#C23A17"/>
  <path d="M219.938 293.25H244.375V317.688H219.938V293.25Z" fill="#C23A17"/>
</g>
<g id="w">
<path d="M0 146.625H24.4375V171.062H0V146.625Z" fill="#1E5D77"/>
<path d="M0 171.062H24.4375V195.5H0V171.062Z" fill="#1E5D77"/>
<path d="M0 195.5H24.4375V219.938H0V195.5Z" fill="#1E5D77"/>
<path d="M0 219.938H24.4375V244.375H0V219.938Z" fill="#1E5D77"/>
<path d="M0 244.375H24.4375V268.812H0V244.375Z" fill="#1D4659"/>
<path d="M24.4375 97.75H48.875V122.188H24.4375V97.75Z" fill="#1E5D77"/>
<path d="M24.4375 122.188H48.875V146.625H24.4375V122.188Z" fill="#23839D"/>
<path d="M24.4375 146.625H48.875V171.062H24.4375V146.625Z" fill="#2D96A8"/>
<path d="M24.4375 171.062H48.875V195.5H24.4375V171.062Z" fill="#2D96A8"/>
<path d="M24.4375 195.5H48.875V219.938H24.4375V195.5Z" fill="#23839D"/>
<path d="M24.4375 219.938H48.875V244.375H24.4375V219.938Z" fill="#1E5D77"/>
<path d="M24.4375 244.375H48.875V268.812H24.4375V244.375Z" fill="#1E5D77"/>
<path d="M24.4375 268.812H48.875V293.25H24.4375V268.812Z" fill="#1D4659"/>
<path d="M48.875 97.75H73.3125V122.188H48.875V97.75Z" fill="#23839D"/>
<path d="M48.875 73.3125H73.3125V97.75H48.875V73.3125Z" fill="#23758B"/>
<path d="M48.875 122.188H73.3125V146.625H48.875V122.188Z" fill="#23839D"/>
<path d="M48.875 146.625H73.3125V171.062H48.875V146.625Z" fill="#38B7C3"/>
<path d="M48.875 171.062H73.3125V195.5H48.875V171.062Z" fill="#31A5B6"/>
<path d="M48.875 195.5H73.3125V219.938H48.875V195.5Z" fill="#2D96A8"/>
<path d="M48.875 219.938H73.3125V244.375H48.875V219.938Z" fill="#2D96A8"/>
<path d="M48.875 244.375H73.3125V268.812H48.875V244.375Z" fill="#1E5D77"/>
<path d="M48.875 268.812H73.3125V293.25H48.875V268.812Z" fill="#1E5D77"/>
<path d="M48.875 293.25H73.3125V317.688H48.875V293.25Z" fill="#1D4659"/>
<path d="M73.3125 97.75H97.75V122.188H73.3125V97.75Z" fill="#31A5B6"/>
<path d="M73.3125 24.4375H97.75V48.875H73.3125V24.4375Z" fill="#1D5168"/>
<path d="M73.3125 48.875H97.75V73.3125H73.3125V48.875Z" fill="#1E5D77"/>
<path d="M73.3125 73.3125H97.75V97.75H73.3125V73.3125Z" fill="#2D96A8"/>
<path d="M73.3125 122.188H97.75V146.625H73.3125V122.188Z" fill="#38B7C3"/>
<path d="M73.3125 146.625H97.75V171.062H73.3125V146.625Z" fill="#38B7C3"/>
<path d="M73.3125 171.062H97.75V195.5H73.3125V171.062Z" fill="#38B7C3"/><path d="M73.3125 195.5H97.75V219.938H73.3125V195.5Z" fill="#54C6C8"/><path d="M73.3125 219.938H97.75V244.375H73.3125V219.938Z" fill="#2D96A8"/><path d="M73.3125 244.375H97.75V268.812H73.3125V244.375Z" fill="#2D96A8"/><path d="M73.3125 268.812H97.75V293.25H73.3125V268.812Z" fill="#1E5D77"/><path d="M73.3125 293.25H97.75V317.688H73.3125V293.25Z" fill="#1E5D77"/><path d="M97.75 97.75H122.188V122.188H97.75V97.75Z" fill="#38B7C3"/><path d="M97.75 0H122.188V24.4375H97.75V0Z" fill="#31A5B6"/><path d="M97.75 24.4375H122.188V48.875H97.75V24.4375Z" fill="#31A5B6"/><path d="M97.75 48.875H122.188V73.3125H97.75V48.875Z" fill="#31A5B6"/><path d="M97.75 73.3125H122.188V97.75H97.75V73.3125Z" fill="#38B7C3"/><path d="M97.75 122.188H122.188V146.625H97.75V122.188Z" fill="#38B7C3"/><path d="M97.75 146.625H122.188V171.062H97.75V146.625Z" fill="#38B7C3"/><path d="M97.75 171.062H122.188V195.5H97.75V171.062Z" fill="#38B7C3"/><path d="M97.75 195.5H122.188V219.938H97.75V195.5Z" fill="#54C6C8"/><path d="M97.75 219.938H122.188V244.375H97.75V219.938Z" fill="#3DBCC7"/><path d="M97.75 244.375H122.188V268.812H97.75V244.375Z" fill="#38B7C3"/><path d="M97.75 268.812H122.188V293.25H97.75V268.812Z" fill="#23758B"/><path d="M97.75 293.25H122.188V317.688H97.75V293.25Z" fill="#205D76"/><path d="M122.188 97.75H146.625V122.188H122.188V97.75Z" fill="#72DCD8"/><path d="M122.188 24.4375H146.625V48.875H122.188V24.4375Z" fill="#23839D"/><path d="M122.188 48.875H146.625V73.3125H122.188V48.875Z" fill="#31A5B6"/><path d="M122.188 73.3125H146.625V97.75H122.188V73.3125Z" fill="#38B7C3"/><path d="M122.188 122.188H146.625V146.625H122.188V122.188Z" fill="#72DCD8"/><path d="M122.188 146.625H146.625V171.062H122.188V146.625Z" fill="#72DCD8"/><path d="M122.188 171.062H146.625V195.5H122.188V171.062Z" fill="#72DCD8"/><path d="M122.188 195.5H146.625V219.938H122.188V195.5Z" fill="#54C6C8"/><path d="M122.188 219.938H146.625V244.375H122.188V219.938Z" fill="#54C6C8"/><path d="M122.188 244.375H146.625V268.812H122.188V244.375Z" fill="#38B7C3"/><path d="M122.188 268.812H146.625V293.25H122.188V268.812Z" fill="#23758B"/><path d="M122.188 293.25H146.625V317.688H122.188V293.25Z" fill="#20617B"/><path d="M146.625 97.75H171.062V122.188H146.625V97.75Z" fill="#38B7C3"/><path d="M146.625 48.875H171.062V73.3125H146.625V48.875Z" fill="#1E5D77"/><path d="M146.625 73.3125H171.062V97.75H146.625V73.3125Z" fill="#2D96A8"/><path d="M146.625 122.188H171.062V146.625H146.625V122.188Z" fill="#72DCD8"/><path d="M146.625 146.625H171.062V171.062H146.625V146.625Z" fill="#72DCD8"/><path d="M146.625 171.062H171.062V195.5H146.625V171.062Z" fill="#B9DDC6"/><path d="M146.625 195.5H171.062V219.938H146.625V195.5Z" fill="#72DCD8"/><path d="M146.625 219.938H171.062V244.375H146.625V219.938Z" fill="#54C6C8"/><path d="M146.625 244.375H171.062V268.812H146.625V244.375Z" fill="#38B7C3"/><path d="M146.625 268.812H171.062V293.25H146.625V268.812Z" fill="#23839D"/><path d="M146.625 293.25H171.062V317.688H146.625V293.25Z" fill="#216580"/><path d="M171.062 97.75H195.5V122.188H171.062V97.75Z" fill="#23839D"/><path d="M171.062 122.188H195.5V146.625H171.062V122.188Z" fill="#38B7C3"/><path d="M171.062 146.625H195.5V171.062H171.062V146.625Z" fill="#38B7C3"/><path d="M171.062 171.062H195.5V195.5H171.062V171.062Z" fill="#8BDFD4"/><path d="M171.062 195.5H195.5V219.938H171.062V195.5Z" fill="#72DCD8"/><path d="M171.062 219.938H195.5V244.375H171.062V219.938Z" fill="#38B7C3"/><path d="M171.062 244.375H195.5V268.812H171.062V244.375Z" fill="#23758B"/><path d="M171.062 268.812H195.5V293.25H171.062V268.812Z" fill="#23839D"/><path d="M171.062 293.25H195.5V317.688H171.062V293.25Z" fill="#1D4659"/><path d="M195.5 122.188H219.938V146.625H195.5V122.188Z" fill="#1E5D77"/><path d="M195.5 146.625H219.938V171.062H195.5V146.625Z" fill="#38B7C3"/><path d="M195.5 171.062H219.938V195.5H195.5V171.062Z" fill="#38B7C3"/><path d="M195.5 195.5H219.938V219.938H195.5V195.5Z" fill="#38B7C3"/><path d="M195.5 219.938H219.938V244.375H195.5V219.938Z" fill="#31A5B6"/><path d="M195.5 244.375H219.938V268.812H195.5V244.375Z" fill="#23758B"/><path d="M195.5 268.812H219.938V293.25H195.5V268.812Z" fill="#1E5D77"/><path d="M219.938 171.062H244.375V195.5H219.938V171.062Z" fill="#1D4659"/><path d="M219.938 195.5H244.375V219.938H219.938V195.5Z" fill="#1E5D77"/><path d="M219.938 219.938H244.375V244.375H219.938V219.938Z" fill="#1E5D77"/><path d="M219.938 244.375H244.375V268.812H219.938V244.375Z" fill="#1E5D77"/></g><g id="a"><path d="M0 244.375H24.4375V268.812H0V244.375Z" fill="#23758B"/><path d="M24.4375 73.3125H48.875V97.75H24.4375V73.3125Z" fill="#4AB1B4"/><path d="M48.875 73.3125H73.3125V97.75H48.875V73.3125Z" fill="#9CDAC7"/><path d="M24.4375 97.75H48.875V122.188H24.4375V97.75Z" fill="#54C6C8"/><path d="M24.4375 122.188H48.875V146.625H24.4375V122.188Z" fill="#2D96A8"/><path d="M24.4375 219.938H48.875V244.375H24.4375V219.938Z" fill="#71CEC3"/><path d="M24.4375 244.375H48.875V268.812H24.4375V244.375Z" fill="#298898"/><path d="M73.3125 73.3125H97.75V97.75H73.3125V73.3125Z" fill="#9CDAC7"/><path d="M48.875 48.875H73.3125V73.3125H48.875V48.875Z" fill="#8BD8C4"/><path d="M48.875 97.75H73.3125V122.188H48.875V97.75Z" fill="#9CDAC7"/><path d="M48.875 122.188H73.3125V146.625H48.875V122.188Z" fill="#8BD8C4"/><path d="M48.875 146.625H73.3125V171.062H48.875V146.625Z" fill="#71CEC3"/><path d="M48.875 219.938H73.3125V244.375H48.875V219.938Z" fill="#8BD8C4"/><path d="M48.875 244.375H73.3125V268.812H48.875V244.375Z" fill="#71CEC3"/><path d="M48.875 268.812H73.3125V293.25H48.875V268.812Z" fill="#23758B"/><path d="M171.062 73.3125H195.5V97.75H171.062V73.3125Z" fill="#298898"/><path d="M73.3125 24.4375H97.75V48.875H73.3125V24.4375Z" fill="#71CEC3"/><path d="M73.3125 48.875H97.75V73.3125H73.3125V48.875Z" fill="#9CDAC7"/><path d="M73.3125 97.75H97.75V122.188H73.3125V97.75Z" fill="#71CEC3"/><path d="M73.3125 122.188H97.75V146.625H73.3125V122.188Z" fill="#71CEC3"/><path d="M73.3125 146.625H97.75V171.062H73.3125V146.625Z" fill="#9CDAC7"/><path d="M73.3125 171.062H97.75V195.5H73.3125V171.062Z" fill="#298898"/><path d="M73.3125 244.375H97.75V268.812H73.3125V244.375Z" fill="#71CEC3"/><path d="M73.3125 268.812H97.75V293.25H73.3125V268.812Z" fill="#23758B"/><path d="M97.75 73.3125H122.188V97.75H97.75V73.3125Z" fill="#31A5B6"/><path d="M171.062 0H195.5V24.4375H171.062V0Z" fill="#8BD8C4"/><path d="M171.062 24.4375H195.5V48.875H171.062V24.4375Z" fill="#B9DDC6"/><path d="M171.062 48.875H195.5V73.3125H171.062V48.875Z" fill="#54C6C8"/><path d="M171.062 97.75H195.5V122.188H171.062V97.75Z" fill="#23758B"/><path d="M171.062 122.188H195.5V146.625H171.062V122.188Z" fill="#23758B"/><path d="M171.062 146.625H195.5V171.062H171.062V146.625Z" fill="#2D96A8"/><path d="M171.062 171.062H195.5V195.5H171.062V171.062Z" fill="#2D96A8"/><path d="M171.062 195.5H195.5V219.938H171.062V195.5Z" fill="#2D96A8"/><path d="M171.062 219.938H195.5V244.375H171.062V219.938Z" fill="#9CDAC7"/><path d="M171.062 244.375H195.5V268.812H171.062V244.375Z" fill="#4BB2B4"/><path d="M171.062 268.812H195.5V293.25H171.062V268.812Z" fill="#298898"/><path d="M195.5 73.3125H219.938V97.75H195.5V73.3125Z" fill="#71CEC3"/><path d="M97.75 0H122.188V24.4375H97.75V0Z" fill="#54C6C8"/><path d="M97.75 24.4375H122.188V48.875H97.75V24.4375Z" fill="#9CDAC7"/><path d="M97.75 48.875H122.188V73.3125H97.75V48.875Z" fill="#9CDAC7"/><path d="M97.75 97.75H122.188V122.188H97.75V97.75Z" fill="#23758B"/><path d="M97.75 122.188H122.188V146.625H97.75V122.188Z" fill="#23758B"/><path d="M97.75 146.625H122.188V171.062H97.75V146.625Z" fill="#9CDAC7"/><path d="M97.75 171.062H122.188V195.5H97.75V171.062Z" fill="#298898"/><path d="M97.75 244.375H122.188V268.812H97.75V244.375Z" fill="#71CEC3"/><path d="M97.75 268.812H122.188V293.25H97.75V268.812Z" fill="#298898"/><path d="M122.188 73.3125H146.625V97.75H122.188V73.3125Z" fill="#23758B"/><path d="M195.5 0H219.938V24.4375H195.5V0Z" fill="#54C6C8"/><path d="M195.5 24.4375H219.938V48.875H195.5V24.4375Z" fill="#B9DDC6"/><path d="M195.5 48.875H219.938V73.3125H195.5V48.875Z" fill="#B9DDC6"/><path d="M195.5 97.75H219.938V122.188H195.5V97.75Z" fill="#298898"/><path d="M195.5 122.188H219.938V146.625H195.5V122.188Z" fill="#23758B"/><path d="M195.5 146.625H219.938V171.062H195.5V146.625Z" fill="#1E5D77"/><path d="M195.5 171.062H219.938V195.5H195.5V171.062Z" fill="#23758B"/><path d="M195.5 195.5H219.938V219.938H195.5V195.5Z" fill="#8BD8C4"/><path d="M195.5 219.938H219.938V244.375H195.5V219.938Z" fill="#9CDAC7"/><path d="M195.5 244.375H219.938V268.812H195.5V244.375Z" fill="#4BB2B4"/><path d="M219.938 73.3125H244.375V97.75H219.938V73.3125Z" fill="#B9DDC6"/><path d="M122.188 0H146.625V24.4375H122.188V0Z" fill="#8BDFD4"/><path d="M122.188 24.4375H146.625V48.875H122.188V24.4375Z" fill="#B9DDC6"/><path d="M122.188 48.875H146.625V73.3125H122.188V48.875Z" fill="#4BB2B4"/><path d="M122.188 97.75H146.625V122.188H122.188V97.75Z" fill="#23758B"/><path d="M122.188 122.188H146.625V146.625H122.188V122.188Z" fill="#B9DDC6"/><path d="M122.188 146.625H146.625V171.062H122.188V146.625Z" fill="#B9DDC6"/><path d="M122.188 171.062H146.625V195.5H122.188V171.062Z" fill="#31A5B6"/><path d="M122.188 219.938H146.625V244.375H122.188V219.938Z" fill="#298898"/><path d="M122.188 244.375H146.625V268.812H122.188V244.375Z" fill="#8BD8C4"/><path d="M122.188 268.812H146.625V293.25H122.188V268.812Z" fill="#298898"/><path d="M146.625 73.3125H171.062V97.75H146.625V73.3125Z" fill="#23758B"/><path d="M219.938 24.4375H244.375V48.875H219.938V24.4375Z" fill="#8BD8C4"/><path d="M219.938 48.875H244.375V73.3125H219.938V48.875Z" fill="#9CDAC7"/><path d="M219.938 97.75H244.375V122.188H219.938V97.75Z" fill="#8BD8C4"/><path d="M219.938 122.188H244.375V146.625H219.938V122.188Z" fill="#4BB2B4"/><path d="M219.938 146.625H244.375V171.062H219.938V146.625Z" fill="#4BB2B4"/><path d="M219.938 171.062H244.375V195.5H219.938V171.062Z" fill="#71CEC3"/><path d="M219.938 195.5H244.375V219.938H219.938V195.5Z" fill="#4BB2B4"/><path d="M219.938 219.938H244.375V244.375H219.938V219.938Z" fill="#298898"/><path d="M244.375 73.3125H268.812V97.75H244.375V73.3125Z" fill="#8BD8C4"/><path d="M146.625 0H171.062V24.4375H146.625V0Z" fill="#9CDAC7"/><path d="M146.625 24.4375H171.062V48.875H146.625V24.4375Z" fill="#B9DDC6"/><path d="M146.625 48.875H171.062V73.3125H146.625V48.875Z" fill="#54C6C8"/><path d="M146.625 97.75H171.062V122.188H146.625V97.75Z" fill="#23758B"/><path d="M146.625 122.188H171.062V146.625H146.625V122.188Z" fill="#9CDAC7"/><path d="M146.625 146.625H171.062V171.062H146.625V146.625Z" fill="#71CEC3"/><path d="M146.625 171.062H171.062V195.5H146.625V171.062Z" fill="#298898"/><path d="M146.625 195.5H171.062V219.938H146.625V195.5Z" fill="#298898"/><path d="M146.625 219.938H171.062V244.375H146.625V219.938Z" fill="#2D96A8"/><path d="M146.625 244.375H171.062V268.812H146.625V244.375Z" fill="#8BD8C4"/><path d="M146.625 268.812H171.062V293.25H146.625V268.812Z" fill="#298898"/><path d="M244.375 48.875H268.812V73.3125H244.375V48.875Z" fill="#71CEC3"/><path d="M244.375 97.75H268.812V122.188H244.375V97.75Z" fill="#B9DDC6"/><path d="M244.375 122.188H268.812V146.625H244.375V122.188Z" fill="#B9DDC6"/><path d="M244.375 146.625H268.812V171.062H244.375V146.625Z" fill="#8BD8C4"/><path d="M244.375 171.062H268.812V195.5H244.375V171.062Z" fill="#2D96A8"/><path d="M244.375 195.5H268.812V219.938H244.375V195.5Z" fill="#4BB2B4"/><path d="M268.812 97.75H293.25V122.188H268.812V97.75Z" fill="#4BB2B4"/><path d="M268.812 122.188H293.25V146.625H268.812V122.188Z" fill="#4BB2B4"/><path d="M268.812 146.625H293.25V171.062H268.812V146.625Z" fill="#46B3B8"/><path d="M268.812 171.062H293.25V195.5H268.812V171.062Z" fill="#1E5D77"/></g><linearGradient id="gr" x1="1024" y1="0" x2="0" y2="1024" gradientUnits="userSpaceOnUse"><stop stop-color="#685545"/><stop offset="0.509615" stop-color="#675344"/><stop offset="1" stop-color="#2E231A"/></linearGradient></defs><g id="pe"><use href="#e" transform="translate(330 280)"/></g><g id="pf"><use href="#f" transform="translate(380 260)"/></g><g id="pw"><use href="#w" transform="translate(390 280)"/></g><g id="pa"><use href="#a" transform="translate(360 300)"/></g><g id="se"><use href="#e" transform="matrix(.4 0 0 .4 630 550)"/></g><g id="sf"><use href="#f" transform="matrix(.4 0 0 .4 630 550)"/></g><g id="sa"><use href="#a" transform="matrix(.4 0 0 .4 630 550)"/></g><g id="sw"><use href="#w" transform="matrix(.4 0 0 .4 630 550)"/></g><g id="c"><path d="M206.241 219.056V210.896H197.793V165.008H206.241V156.752H235.425V165.008H243.969V178.064H231.681V169.904H209.985V181.424H226.977V194.384H209.985V206H231.681V197.744H243.969V210.896H235.425V219.056H206.241Z"/><path d="M264.085 219.056V210.896H255.637V181.424H264.085V173.168H293.269V181.424H301.813V206H310.357V219.056H298.069V210.896H293.269V219.056H264.085ZM267.829 206H289.525V186.224H267.829V206Z"/><path d="M319.2 219.056V206H353.088V202.64H327.648V194.384H319.2V181.424H327.648V173.168H365.376V186.224H331.392V189.488H356.832V197.744H365.376V210.896H356.832V219.056H319.2Z"/><path d="M383.616 235.472V227.312H375.168V214.256H387.36V222.416H409.152V210.896H383.616V202.64H375.168V173.168H387.36V197.744H409.152V173.168H421.344V227.312H412.896V235.472H383.616Z"/><path d="M433.012 219.056V173.168H470.644V181.424H479.188V219.056H466.9V186.224H445.204V219.056H433.012Z"/><path d="M503.908 219.056V210.896H495.46V186.224H487.012V173.168H495.46V156.752H507.652V173.168H533.188V186.224H507.652V206H529.444V197.744H541.732V210.896H533.188V219.056H503.908Z"/><path d="M553.481 219.056V181.424H561.929V173.168H591.113V181.424H599.657V194.384H587.369V186.224H565.673V219.056H553.481Z"/><path d="M616.866 219.056V210.896H608.418V181.424H616.866V173.168H646.05V181.424H654.594V210.896H646.05V219.056H616.866ZM620.61 206H642.306V186.224H620.61V206Z"/><path d="M666.262 234.992V181.424H674.71V173.168H703.894V181.424H712.438V210.896H703.894V219.056H678.454V234.992H666.262ZM678.454 206H700.15V186.224H678.454V206Z"/><path d="M724.106 219.056V156.752H736.298V181.424H741.002V173.168H761.738V181.424H770.282V219.056H757.994V186.224H744.746V194.384H736.298V219.056H724.106Z"/><path d="M788.523 235.472V227.312H780.075V214.256H792.267V222.416H814.059V210.896H788.523V202.64H780.075V173.168H792.267V197.744H814.059V173.168H826.251V227.312H817.803V235.472H788.523Z"/><path d="M811.283 120.46V117.72H813.823V120.46H811.283ZM811.283 117.1V114.38H813.823V117.1H811.283Z"/><path d="M816.263 122.22V119.5H823.323V118.8H818.023V117.08H816.263V114.38H818.023V112.66H825.883V115.38H818.803V116.06H824.103V117.78H825.883V120.52H824.103V122.22H816.263Z"/><path d="M829.683 122.22V120.52H827.923V114.38H829.683V112.66H835.763V114.38H837.543V117.08H834.983V115.38H830.463V116.06H834.003V118.8H830.463V119.5H834.983V117.76H837.543V120.5H835.763V122.22H829.683Z"/><path d="M841.734 122.22V120.52H839.974V114.38H841.734V112.66H847.814V114.38H849.594V117.08H847.034V115.38H842.514V116.06H846.054V118.8H842.514V119.5H847.034V117.76H849.594V120.5H847.814V122.22H841.734Z"/><path d="M853.785 122.22V120.52H852.025V114.38H853.785V112.66H859.105V109.24H861.665V120.52H859.865V122.22H853.785ZM854.565 119.5H859.085V115.38H854.565V119.5Z"/><path d="M158.22 912.22V902.66H164.3V904.38H165.28V902.66H169.62V904.38H171.36V912.22H168.84V905.38H166.06V912.22H163.52V905.38H160.76V912.22H158.22Z"/><path d="M173.806 912.22V902.66H176.346V912.22H173.806ZM173.806 901.98V899.24H176.346V901.98H173.806Z"/><path d="M178.396 912.22V902.66H186.236V904.38H188.016V912.22H185.456V905.38H180.936V912.22H178.396Z"/><path d="M193.166 912.22V910.52H191.406V905.38H189.646V902.66H191.406V899.24H193.946V902.66H199.266V905.38H193.946V909.5H198.486V907.78H201.046V910.52H199.266V912.22H193.166Z"/><path d="M204.648 912.22V910.52H202.888V904.38H204.648V902.66H210.728V904.38H212.508V907.08H209.948V905.38H205.428V906.06H208.968V908.8H205.428V909.5H209.948V907.76H212.508V910.5H210.728V912.22H204.648Z"/><path d="M214.939 912.22V904.38H216.699V902.66H222.779V904.38H224.559V907.08H221.999V905.38H217.479V912.22H214.939Z"/><path d="M226.99 910.46V907.72H229.53V910.46H226.99ZM226.99 907.1V904.38H229.53V907.1H226.99Z"/><path d="M81.5 85H125.5V42H897V85H941M81.5 85H37.5V54.5M81.5 85V42H48.5M81.5 85V128.5H37.5V895H81.5V938.5M941 85H985V54.5M941 85V42H974M941 85V128.5H985V895H941V938.5M81.5 938.5H125.5V981.5H897V938.5H941M81.5 938.5H37.5V969M81.5 938.5V981.5H48.5M941 938.5H985V969M941 938.5V981.5H974M81.5 160.5V862M156 938.5H867M941 160.5V862M156 85H867" id="o" stroke-width="22"/></g><g id="v"><path d="M168 779L193.5 797L219 779L245 819.5L193.5 871L142 819.5L168 779Z" fill="#C559F3"/><path d="M175.99 832.352V829.632H173.174V824.128H170.358V811.584H174.422V822.496H177.238V828H178.838V822.496H181.654V811.584H185.75V824.128H182.902V829.632H180.086V832.352H175.99Z" fill="#fff"/><path d="M189.639 832.352V828H192.456V815.968H189.639V811.584H199.368V815.968H196.52V828H199.368V832.352H189.639Z" fill="#fff"/><path d="M203.264 832.352V814.336H206.08V811.584H215.809V814.336H218.657V824.128H215.809V826.88H207.328V832.352H203.264ZM207.328 822.496H214.561V815.968H207.328V822.496Z" fill="#fff"/></g></g></svg>
