<svg width="1024" height="1024" viewBox="0 0 1024 1024" fill="none" xmlns="http://www.w3.org/2000/svg">
<path d="M0 0H1024V1024H0V0Z" fill="url(#paint0_linear_37_2)"/>
<path d="M380.248 799.704V758.168H388.376V799.704H380.248ZM400.567 799.704V794.264H394.935V774.616H400.567V769.112H420.023V774.616H425.719V794.264H420.023V799.704H400.567ZM403.063 791H417.527V777.816H403.063V791ZM439.13 799.704V794.264H433.498V774.616H439.13V769.112H458.586V774.616H464.282V791H469.978V799.704H461.786V794.264H458.586V799.704H439.13ZM441.626 791H456.09V777.816H441.626V791ZM480.255 799.704V794.264H474.623V774.616H480.255V769.112H497.279V758.168H505.471V794.264H499.711V799.704H480.255ZM482.751 791H497.215V777.816H482.751V791ZM513.185 799.704V769.112H521.313V799.704H513.185ZM513.185 766.936V758.168H521.313V766.936H513.185ZM527.873 799.704V769.112H552.961V774.616H558.657V799.704H550.465V777.816H536.001V799.704H527.873ZM570.817 810.648V805.208H565.185V796.504H573.313V801.944H587.841V794.264H570.817V788.76H565.185V774.616H570.817V769.112H590.337V774.616H595.969V805.208H590.337V810.648H570.817ZM573.313 785.496H587.841V777.816H573.313V785.496ZM603.748 799V790.232H611.876V799H603.748ZM619.685 799V790.232H627.813V799H619.685ZM635.623 799V790.232H643.751V799H635.623Z" fill="#A3A3A3"/>
<path d="M206.242 219.056V210.896H197.794V165.008H206.242V156.752H235.426V165.008H243.97V178.064H231.682V169.904H209.986V181.424H226.978V194.384H209.986V206H231.682V197.744H243.97V210.896H235.426V219.056H206.242Z" fill="#3D3D3D"/>
<path d="M264.086 219.056V210.896H255.638V181.424H264.086V173.168H293.27V181.424H301.814V206H310.358V219.056H298.07V210.896H293.27V219.056H264.086ZM267.83 206H289.526V186.224H267.83V206Z" fill="#3D3D3D"/>
<path d="M319.2 219.056V206H353.088V202.64H327.648V194.384H319.2V181.424H327.648V173.168H365.376V186.224H331.392V189.488H356.832V197.744H365.376V210.896H356.832V219.056H319.2Z" fill="#3D3D3D"/>
<path d="M383.617 235.472V227.312H375.169V214.256H387.361V222.416H409.153V210.896H383.617V202.64H375.169V173.168H387.361V197.744H409.153V173.168H421.345V227.312H412.897V235.472H383.617Z" fill="#3D3D3D"/>
<path d="M433.013 219.056V173.168H470.645V181.424H479.189V219.056H466.901V186.224H445.205V219.056H433.013Z" fill="#3D3D3D"/>
<path d="M503.909 219.056V210.896H495.461V186.224H487.013V173.168H495.461V156.752H507.653V173.168H533.189V186.224H507.653V206H529.445V197.744H541.733V210.896H533.189V219.056H503.909Z" fill="#3D3D3D"/>
<path d="M553.481 219.056V181.424H561.929V173.168H591.113V181.424H599.657V194.384H587.369V186.224H565.673V219.056H553.481Z" fill="#3D3D3D"/>
<path d="M616.867 219.056V210.896H608.419V181.424H616.867V173.168H646.051V181.424H654.595V210.896H646.051V219.056H616.867ZM620.611 206H642.307V186.224H620.611V206Z" fill="#3D3D3D"/>
<path d="M666.263 234.992V181.424H674.711V173.168H703.895V181.424H712.439V210.896H703.895V219.056H678.455V234.992H666.263ZM678.455 206H700.151V186.224H678.455V206Z" fill="#3D3D3D"/>
<path d="M724.106 219.056V156.752H736.298V181.424H741.002V173.168H761.738V181.424H770.282V219.056H757.994V186.224H744.746V194.384H736.298V219.056H724.106Z" fill="#3D3D3D"/>
<path d="M788.523 235.472V227.312H780.075V214.256H792.267V222.416H814.059V210.896H788.523V202.64H780.075V173.168H792.267V197.744H814.059V173.168H826.251V227.312H817.803V235.472H788.523Z" fill="#3D3D3D"/>
<path d="M81.5 85H125.5V42H897V85H941M81.5 85H37.5V54.5M81.5 85V42H48.5M81.5 85V128.5H37.5V895H81.5V938.5M941 85H985V54.5M941 85V42H974M941 85V128.5H985V895H941V938.5M81.5 938.5H125.5V981.5H897V938.5H941M81.5 938.5H37.5V969M81.5 938.5V981.5H48.5M941 938.5H985V969M941 938.5V981.5H974M81.5 160.5V862M156 938.5H867M941 160.5V862M156 85H867" stroke="#3D3D3D" stroke-width="22"/>
<defs>
<linearGradient id="paint0_linear_37_2" x1="1024" y1="0" x2="0" y2="1024" gradientUnits="userSpaceOnUse">
<stop stop-color="#685545"/>
<stop offset="0.0001" stop-color="#675344"/>
<stop offset="0.0002" stop-color="#2E231A"/>
</linearGradient>
</defs>
</svg>
